# xmcd CD database file
#
# Track frame offsets:
#	150
#	12672
#	25138
#	41076
#	62766
#	75289
#	88385
#	101193
#	113048
#	126142
#	149435
#
# Disc length: 2150 seconds
#
# Revision: 0
# Processed by: cddbd v1.5.2PL0 Copyright (c) Steve Scherf et al.
# Submitted via: CDex 1.70beta2
#
DISCID=9508640b
DTITLE=Rita Engebretsen og Helge Borglund - Frem fra Glemselen kapittel 16
DYEAR=2006
DGENRE=Schillingsviser
TTITLE0=Rita Engebretsen - Der bjørkene suser
TTITLE1=Helge Borglund - Gjeterguttens sang
TTITLE2=Rita Engebretsen - Midnattsolens land
TTITLE3=Helge Borglund - Ole Lukkøye
TTITLE4=Rita Engebretsen - Ingen er som deg Tahiti
TTITLE5=Helge Borglund - Jeg har bodd ved en landsveg
TTITLE6=Rita Engebretsen - Det er rokken som spinner i stuen
TTITLE7=Helge Borglund - Soldatens siste syn
TTITLE8=Han skal åpne perleporten
TTITLE9=Helge Borglund - Barndomsminne fra Nordland
TTITLE10=Rita Engebretsen - Tafjordulykken
EXTD=YEAR: 2006
EXTT0=
EXTT1=
EXTT2=
EXTT3=
EXTT4=
EXTT5=
EXTT6=
EXTT7=
EXTT8=
EXTT9=
EXTT10=
PLAYORDER=
